<svg width="23" height="23" viewBox="0 0 23 23" fill="none" xmlns="http://www.w3.org/2000/svg">
<path d="M22.4259 11.4568C22.4259 17.5527 17.4423 22.4918 11.3909 22.4918C5.295 22.4918 0.355966 17.5527 0.355966 11.4568C0.355966 5.40538 5.295 0.421855 11.3909 0.421855C17.4423 0.421855 22.4259 5.40538 22.4259 11.4568ZM10.1005 17.3303L18.2878 9.14303C18.5547 8.87605 18.5547 8.3866 18.2878 8.11963L17.2644 7.14072C16.9974 6.82925 16.5524 6.82925 16.2855 7.14072L9.61109 13.8151L6.45189 10.7004C6.18491 10.3889 5.73996 10.3889 5.47298 10.7004L4.44958 11.6793C4.1826 11.9463 4.1826 12.4357 4.44958 12.7027L9.07714 17.3303C9.34411 17.5972 9.83357 17.5972 10.1005 17.3303Z" fill="#32AC6C"/>
</svg>
